<svg id="Layer_1" xmlns="http://www.w3.org/2000/svg" viewBox="0 0 235 51.8"><style>.st0{fill:#eb2d2e}.st1{fill:#fff}.st2{fill:#989898}.st3{fill:#231f20}.st4{fill:#818385}</style><path class="st0" d="M16.8 38l.1-24.7h8.7c6.7 0 10.7 4.3 10.6 12.5-.2 8-4.4 12.2-10.7 12.2h-8.7zm8.2-5.8c2-.2 2.9-1.3 3.1-5.2v-2.2c-.1-1.1-.1-1.8-.3-2.4-.5-2.4-1.3-3.2-2.9-3.3h-.5v13.1h.6z"/><path class="st0" d="M24.6 43.9c-10 0-18.1-8.1-18.1-18.1 0-10 8.1-18.1 18.1-18.1 10 0 18.1 8.1 18.1 18.1 0 4.8-1.9 9.2-5 12.5h8c2.2-3.7 3.4-7.9 3.4-12.5 0-13.5-11-24.6-24.6-24.6C11 1.2 0 12.2 0 25.7s11 24.6 24.6 24.6c4.8 0 9.3-1.4 13.1-3.8v-8.2c-3.3 3.4-8 5.6-13.1 5.6"/><path class="st0" d="M47 44c0 1.7-1.4 3.1-3.1 3.1-1.7 0-3.1-1.4-3.1-3.1 0-1.7 1.4-3.1 3.1-3.1 1.7 0 3.1 1.4 3.1 3.1"/><path class="st2" d="M57.8 0h1v50.4h-1z"/><path class="st3" d="M68.2 20.2h6.1c1.5 0 2.8.1 4 .4 1.2.3 2.3.7 3.2 1.3.9.6 1.6 1.5 2.1 2.6s.7 2.4.7 4.1c0 1.6-.3 2.9-.7 4-.5 1.1-1.2 2-2.1 2.6-.9.7-1.9 1.2-3.2 1.5-1.2.3-2.6.4-4 .4h-6.1V20.2zm4.5 13.5h1.7c1.7 0 3-.4 3.9-1.3.9-.9 1.4-2.1 1.4-3.8 0-1.7-.5-3-1.4-3.8-.9-.9-2.2-1.3-3.9-1.3h-1.7v10.2zm13.6-5.1c0-1.4.2-2.6.5-3.7.4-1.1.9-2 1.6-2.7.7-.7 1.6-1.3 2.6-1.7 1.1-.4 2.3-.6 3.7-.6 1.4 0 2.6.2 3.7.6 1.1.4 1.9 1 2.6 1.7.7.8 1.2 1.7 1.6 2.7.4 1.1.5 2.3.5 3.7 0 1.3-.2 2.5-.5 3.6-.4 1.1-.9 2-1.6 2.8-.7.8-1.6 1.3-2.7 1.7-1.1.4-2.3.6-3.6.6-1.4 0-2.6-.2-3.7-.6-1-.4-1.9-1-2.6-1.7-.7-.8-1.3-1.7-1.6-2.8-.3-1-.5-2.3-.5-3.6zm4.7 0c0 .7.1 1.4.2 2 .1.7.4 1.2.7 1.7.3.5.7.9 1.2 1.2.5.3 1.1.4 1.7.4.7 0 1.3-.2 1.7-.4.5-.3.9-.7 1.2-1.2.3-.5.5-1.1.7-1.7.1-.7.2-1.3.2-2s-.1-1.4-.2-2.1c-.1-.7-.4-1.2-.7-1.7-.3-.5-.7-.9-1.2-1.2-.5-.3-1.1-.4-1.7-.4-.7 0-1.3.1-1.7.4-.5.3-.9.7-1.2 1.2-.3.5-.5 1.1-.7 1.7-.2.7-.2 1.4-.2 2.1zm14.6-8.4h7.1l3.6 11.2 3.7-11.2h6.8V37h-4.4l.1-13-4.3 13H114l-4.1-13 .1 13h-4.4V20.2zm29.2 0h5.5l6.5 16.9h-4.9l-1.3-3.6h-6.3L133 37h-4.6l6.4-16.8zm2.8 3.4l-2.2 6.6h4.2l-2-6.6zm11.1-3.4h4.5V37h-4.5V20.2zm7.9 0h5.7l5.7 11.5V20.2h4.1V37h-5.6l-5.9-11.5.1 11.5h-4.1V20.2zm18.7 12.9h4.1V37h-4.1v-3.9zm19.4-10.2c-1.1-.6-2.2-.9-3.5-.9-1 0-1.8.2-2.6.5s-1.5.8-2.1 1.4c-.6.6-1 1.3-1.3 2.1-.3.8-.5 1.7-.5 2.6 0 1 .2 1.9.5 2.7.3.8.8 1.5 1.4 2.1.6.6 1.3 1 2 1.3.8.3 1.6.5 2.5.5.3 0 .6 0 1-.1.3 0 .7-.1 1-.2l.9-.3c.3-.1.6-.2.8-.3l.1 2.3c-.6.3-1.3.4-2 .5-.7.1-1.3.1-1.8.1-1.3 0-2.6-.2-3.7-.6-1.1-.4-2-1-2.8-1.8-.8-.8-1.4-1.7-1.8-2.8-.4-1.1-.6-2.3-.6-3.6 0-1.3.2-2.5.7-3.6.4-1.1 1.1-2 1.9-2.7.8-.8 1.7-1.3 2.8-1.8 1.1-.4 2.3-.6 3.6-.6.7 0 1.3.1 1.9.2.6.1 1.2.3 1.9.6l-.3 2.4zm2.2 5.7c0-1.3.2-2.4.5-3.5.4-1.1.9-2 1.6-2.8.7-.8 1.6-1.4 2.6-1.8 1-.4 2.1-.7 3.4-.7 1.3 0 2.4.2 3.4.7 1 .4 1.9 1.1 2.6 1.8.7.8 1.2 1.7 1.6 2.8.4 1.1.5 2.2.5 3.5 0 1.3-.2 2.5-.5 3.5-.4 1.1-.9 2-1.6 2.8-.7.8-1.5 1.4-2.6 1.8-1 .4-2.2.6-3.4.6-1.3 0-2.4-.2-3.4-.6-1-.4-1.9-1-2.6-1.8-.7-.8-1.2-1.7-1.6-2.8-.3-1-.5-2.2-.5-3.5zm2.5 0c0 .8.1 1.7.3 2.4.2.8.5 1.5 1 2.1.5.6 1 1.1 1.7 1.5.7.4 1.5.6 2.5.6s1.8-.2 2.5-.6c.7-.4 1.3-.9 1.7-1.5.4-.6.8-1.3 1-2.1.2-.8.3-1.6.3-2.4 0-.9-.1-1.7-.4-2.5-.2-.8-.6-1.5-1-2.1-.5-.6-1-1.1-1.7-1.5-.7-.4-1.5-.5-2.4-.5-.9 0-1.7.2-2.4.5-.7.4-1.3.9-1.7 1.5-.5.6-.8 1.3-1 2.1-.2.8-.4 1.7-.4 2.5zm17.1-8.4h4l5.3 14 5.2-14h4V37h-2.4V22.4h-.1L226.9 37h-2.4L219 22.4V37h-2.4V20.2z"/><path class="st4" d="M4.8 47.4c0 1.3-1 2.3-2.3 2.3-1.3 0-2.3-1-2.3-2.3 0-1.3 1-2.2 2.3-2.2 1.3-.1 2.3.9 2.3 2.2m-4 0c0 1 .8 1.8 1.8 1.8s1.7-.8 1.7-1.8-.7-1.8-1.7-1.8c-1.1 0-1.8.8-1.8 1.8m1.4 1.1h-.5v-2.2c.2 0 .5-.1.9-.1s.6.1.8.2c.1.1.2.3.2.5 0 .3-.2.5-.5.5.2.1.3.2.4.5.1.3.1.5.2.5h-.6c-.1.1-.1-.1-.2-.4 0-.2-.2-.3-.5-.3h-.2v.8zm0-1.2h.2c.3 0 .5-.1.5-.3 0-.2-.2-.3-.5-.3h-.3v.6z"/></svg>