<svg id="Layer_1" xmlns="http://www.w3.org/2000/svg" viewBox="-206 341.7 277.7 278.3"><style>.st0{fill:#0086cb}</style><path class="st0" d="M-66.9 356.7c-34.3 0-65.2 13.9-87.7 36.3-22.5 22.5-36.4 53.5-36.4 87.8 0 34.2 13.9 65.2 36.3 87.7 22.4 22.4 53.4 36.3 87.7 36.3 34.2 0 65.2-13.9 87.7-36.3C43.1 546 57 515 57 480.8s-13.9-65.2-36.3-87.7-53.4-36.4-87.6-36.4m0-15c76.8 0 139.1 62.3 139.1 139.1S9.9 619.9-66.9 619.9c-76.8-.1-139.1-62.3-139.1-139.1s62.3-139.1 139.1-139.1m-97.9 41.2"/><path class="st0" d="M-132.7 479.7c0-8.1-5.4-12.7-13-12.7h-4.7v25.4h4.5c7.1 0 13.2-3.9 13.2-12.7zm82.9 9.1l-34.3 27-31.4-24.7c-4.5 10.9-15.4 18.5-28.1 18.5h-26.8v-59.8h26.8c14.1 0 24.2 8.9 28 18.5l31.4-24.7 11.6 9.1-28.8 22.6 5.5 4.3 28.8-22.6 11.6 9.1-28.8 22.6 5.5 4.3 28.8-22.6v-20.8h20.9v42.3h20.8v17.5H-50v-20.6h.2zm68.1 3.3h20.8v17.5H-2.6v-59.8h20.9v42.3z"/></svg>