<svg width="620.25" height="182.344" xmlns="http://www.w3.org/2000/svg"><defs><clipPath id="a"><path d="M0 0h4802v1298.75H0V0z"/></clipPath></defs><title>Layer 1</title><g clip-path="url(#a)" fill="#161312"><path d="M125.622 79.484H75.176a2.358 2.358 0 0 0-2.357 2.359v24.663a2.36 2.36 0 0 0 2.357 2.36h19.679v30.643s-4.42 1.506-16.635 1.506c-14.412 0-34.546-5.266-34.546-49.539 0-44.282 20.965-50.109 40.647-50.109 17.037 0 24.378 3 29.048 4.445 1.467.45 2.825-1.01 2.825-2.313l5.627-23.83c0-.609-.206-1.343-.9-1.842C119.022 16.475 107.451 10 78.22 10 44.542 10 10 24.327 10 93.203c0 68.877 39.55 79.14 72.877 79.14 27.595 0 44.336-11.792 44.336-11.792.69-.381.764-1.345.764-1.787V81.843a2.357 2.357 0 0 0-2.355-2.359m259.972-61.231c0-1.313-1.04-2.372-2.341-2.372h-28.404a2.361 2.361 0 0 0-2.353 2.372l.008 54.89H308.23v-54.89c0-1.313-1.045-2.372-2.344-2.372h-28.402c-1.293 0-2.346 1.059-2.346 2.371v148.63c0 1.31 1.053 2.378 2.346 2.378h28.402c1.299 0 2.344-1.068 2.344-2.379v-63.573h44.274l-.078 63.573c0 1.311 1.054 2.379 2.353 2.379h28.471c1.301 0 2.341-1.068 2.344-2.379V18.252M179.22 37.756c0-10.227-8.2-18.492-18.316-18.492-10.106 0-18.313 8.265-18.313 18.492 0 10.217 8.206 18.504 18.313 18.504 10.116 0 18.316-8.287 18.316-18.504m-2.031 97.773V66.92a2.361 2.361 0 0 0-2.35-2.367h-28.314c-1.299 0-2.461 1.34-2.461 2.642v98.294c0 2.889 1.8 3.747 4.13 3.747h25.51c2.798 0 3.485-1.373 3.485-3.793v-29.915M493.54 64.777h-28.186c-1.293 0-2.345 1.066-2.345 2.377v72.877s-7.16 5.239-17.324 5.239c-10.162 0-12.86-4.611-12.86-14.563V67.154c0-1.311-1.05-2.377-2.344-2.377h-28.606c-1.291 0-2.349 1.066-2.349 2.377v68.366c0 29.558 16.474 36.789 39.137 36.789 18.59 0 33.58-10.271 33.58-10.271s.715 5.412 1.037 6.054c.324.64 1.165 1.287 2.074 1.287l18.199-.08c1.29 0 2.348-1.068 2.348-2.373l-.008-99.772c0-1.311-1.054-2.377-2.353-2.377m65.919 80.403c-9.777-.298-16.408-4.734-16.408-4.734V93.378s6.543-4.01 14.569-4.726c10.15-.91 19.93 2.157 19.93 26.37 0 25.532-4.414 30.57-18.091 30.158zm11.117-83.742c-16.009 0-26.897 7.143-26.897 7.143V18.252c0-1.312-1.049-2.37-2.344-2.37h-28.484a2.359 2.359 0 0 0-2.347 2.37v148.63c0 1.31 1.052 2.378 2.351 2.378h19.763c.89 0 1.563-.459 2.06-1.262.492-.8 1.2-6.853 1.2-6.853s11.648 11.038 33.697 11.038c25.885 0 40.73-13.13 40.73-58.944s-23.709-51.8-39.729-51.8M258.822 64.54h-21.306l-.032-28.148c0-1.064-.549-1.597-1.78-1.597h-29.035c-1.129 0-1.735.496-1.735 1.581v29.087s-14.55 3.513-15.534 3.797a2.36 2.36 0 0 0-1.701 2.265v18.279a2.359 2.359 0 0 0 2.349 2.374h14.886v43.973c0 32.662 22.91 35.87 38.37 35.87 7.063 0 15.514-2.269 16.908-2.784.844-.31 1.334-1.183 1.334-2.13l.024-20.108c0-1.311-1.108-2.372-2.355-2.372-1.241 0-4.418.504-7.688.504-10.465 0-14.01-4.866-14.01-11.164l-.002-41.789h21.308a2.36 2.36 0 0 0 2.35-2.374V66.909a2.356 2.356 0 0 0-2.35-2.368"/></g></svg>