<svg id="Layer_1" xmlns="http://www.w3.org/2000/svg" viewBox="0 0 215.3 85.5"><style>.st0{fill-rule:evenodd;clip-rule:evenodd;fill:#f59705}.st1{fill:#020000}.st2{fill:none;stroke:#020000;stroke-width:.1815}.st3{fill-rule:evenodd;clip-rule:evenodd;fill:#020000}</style><path class="st0" d="M27.7 79.9l-12.6-4.5V56.8l12.6 4.3zm2.3 0l12.7-4.5V56.8L30 61.1zM16.4 55.4l12.8-3.6 11.9 3.9-11.9 4zM12.7 54L0 49.5V30.9l12.7 4.3zm2.3 0l12.6-4.5V30.9L15 35.2zM1.3 29.5l12.8-3.6L26 29.7l-11.9 4.1zM42.2 54l-12.7-4.5V30.9l12.7 4.3zm2.3 0l12.7-4.5V30.9l-12.7 4.3zM30.8 29.5l12.8-3.6 11.9 3.8-11.9 4.1zm26.5-1.4l-12.7-4.6V5l12.7 4.3zm2.3 0l12.6-4.6V5L59.6 9.3zM45.9 3.6L58.7 0l11.9 3.8-11.9 4.1zm40.9 24.5l-12.7-4.6V5l12.7 4.3zm2.3 0l12.7-4.6V5L89.1 9.3zM75.4 3.6L88.2 0l11.9 3.8-11.9 4.1z"/><path class="st1" d="M92.1 78.2l2.1.4c-.4 1.3-1.1 2.3-2.3 3.1-1.1.8-2.5 1.2-4 1.2-2 0-3.6-.7-4.9-2.1-1.2-1.4-1.9-3.3-1.9-5.6 0-2.4.6-4.3 1.9-5.7 1.3-1.4 2.9-2.2 4.9-2.2 1.9 0 3.5.7 4.7 2 1.2 1.3 1.8 3.3 1.8 6H83.8c0 2.2.5 3.7 1.4 4.5.9.8 1.9 1.2 3 1.2 1.8.1 3.1-.9 3.9-2.8m-.1-4.5c0-.8-.2-1.6-.4-2.2-.3-.6-.7-1.2-1.3-1.6-.6-.5-1.3-.7-2.2-.7-1.1 0-2.1.4-2.9 1.2-.8.8-1.2 1.9-1.3 3.3H92z"/><path class="st2" d="M92.1 78.2l2.1.4c-.4 1.3-1.1 2.3-2.3 3.1-1.1.8-2.5 1.2-4 1.2-2 0-3.6-.7-4.9-2.1-1.2-1.4-1.9-3.3-1.9-5.6 0-2.4.6-4.3 1.9-5.7 1.3-1.4 2.9-2.2 4.9-2.2 1.9 0 3.5.7 4.7 2 1.2 1.3 1.8 3.3 1.8 6H83.8c0 2.2.5 3.7 1.4 4.5.9.8 1.9 1.2 3 1.2 1.8.1 3.1-.9 3.9-2.8zm-.1-4.5c0-.8-.2-1.6-.4-2.2-.3-.6-.7-1.2-1.3-1.6-.6-.5-1.3-.7-2.2-.7-1.1 0-2.1.4-2.9 1.2-.8.8-1.2 1.9-1.3 3.3H92z"/><path class="st1" d="M98.6 82.6h-1.1V62.7h2.3v7.6c1.1-1.9 2.5-2.9 4.3-2.9 1.7 0 3.1.7 4.3 2 1.1 1.3 1.7 3.3 1.7 5.8 0 2.2-.6 4-1.7 5.5s-2.6 2.2-4.4 2.2c-2 0-3.5-1-4.6-2.9l-.8 2.6zm1.2-5.8c.1 1.5.6 2.6 1.4 3.3.8.7 1.7 1 2.6 1 1.2 0 2.1-.5 2.8-1.5.7-1 1.1-2.4 1.1-4.2 0-1.9-.3-3.4-1-4.5s-1.7-1.6-2.9-1.6c-1 0-1.8.4-2.6 1.2-.8.8-1.2 1.8-1.4 3v3.3z"/><path class="st2" d="M98.6 82.6h-1.1V62.7h2.3v7.6c1.1-1.9 2.5-2.9 4.3-2.9 1.7 0 3.1.7 4.3 2 1.1 1.3 1.7 3.3 1.7 5.8 0 2.2-.6 4-1.7 5.5s-2.6 2.2-4.4 2.2c-2 0-3.5-1-4.6-2.9l-.8 2.6zm1.2-5.8c.1 1.5.6 2.6 1.4 3.3.8.7 1.7 1 2.6 1 1.2 0 2.1-.5 2.8-1.5.7-1 1.1-2.4 1.1-4.2 0-1.9-.3-3.4-1-4.5s-1.7-1.6-2.9-1.6c-1 0-1.8.4-2.6 1.2-.8.8-1.2 1.8-1.4 3v3.3z"/><path class="st1" d="M116 78.8l2.2-.5c.5 1.9 2 2.8 4.6 2.8 1 0 1.8-.2 2.4-.6.7-.4 1-1 1-1.8 0-1.2-.8-1.9-2.5-2.2l-3.1-.6c-1.2-.2-2.2-.7-2.9-1.4-.7-.7-1.1-1.6-1.1-2.7 0-1.2.5-2.3 1.5-3.1s2.3-1.3 4-1.3c3.2 0 5.2 1.3 5.9 3.8l-2.1.5c-.6-1.5-1.8-2.3-3.7-2.3-.9 0-1.7.2-2.3.6-.6.4-.9.9-.9 1.6 0 1.1.8 1.8 2.3 2l2.9.5c3 .5 4.5 2 4.5 4.4 0 1.4-.6 2.5-1.7 3.3-1.1.8-2.6 1.3-4.5 1.3-3.5-.1-5.7-1.5-6.5-4.3"/><path class="st2" d="M116 78.8l2.2-.5c.5 1.9 2 2.8 4.6 2.8 1 0 1.8-.2 2.4-.6.7-.4 1-1 1-1.8 0-1.2-.8-1.9-2.5-2.2l-3.1-.6c-1.2-.2-2.2-.7-2.9-1.4-.7-.7-1.1-1.6-1.1-2.7 0-1.2.5-2.3 1.5-3.1s2.3-1.3 4-1.3c3.2 0 5.2 1.3 5.9 3.8l-2.1.5c-.6-1.5-1.8-2.3-3.7-2.3-.9 0-1.7.2-2.3.6-.6.4-.9.9-.9 1.6 0 1.1.8 1.8 2.3 2l2.9.5c3 .5 4.5 2 4.5 4.4 0 1.4-.6 2.5-1.7 3.3-1.1.8-2.6 1.3-4.5 1.3-3.5-.1-5.7-1.5-6.5-4.3z"/><path class="st1" d="M140.9 78.2l2.1.4c-.4 1.3-1.1 2.3-2.3 3.1-1.1.8-2.5 1.2-4 1.2-2 0-3.6-.7-4.9-2.1-1.2-1.4-1.9-3.3-1.9-5.6 0-2.4.6-4.3 1.9-5.7 1.3-1.4 2.9-2.2 4.9-2.2 1.9 0 3.5.7 4.6 2 1.2 1.3 1.8 3.3 1.8 6h-10.7c0 2.2.5 3.7 1.4 4.5.9.8 1.9 1.2 3 1.2 2 .1 3.3-.9 4.1-2.8m-.1-4.5c0-.8-.2-1.6-.4-2.2s-.7-1.2-1.3-1.6c-.6-.5-1.3-.7-2.2-.7-1.1 0-2.1.4-2.9 1.2-.8.8-1.2 1.9-1.3 3.3h8.1z"/><path class="st2" d="M140.9 78.2l2.1.4c-.4 1.3-1.1 2.3-2.3 3.1-1.1.8-2.5 1.2-4 1.2-2 0-3.6-.7-4.9-2.1-1.2-1.4-1.9-3.3-1.9-5.6 0-2.4.6-4.3 1.9-5.7 1.3-1.4 2.9-2.2 4.9-2.2 1.9 0 3.5.7 4.6 2 1.2 1.3 1.8 3.3 1.8 6h-10.7c0 2.2.5 3.7 1.4 4.5.9.8 1.9 1.2 3 1.2 2 .1 3.3-.9 4.1-2.8zm-.1-4.5c0-.8-.2-1.6-.4-2.2s-.7-1.2-1.3-1.6c-.6-.5-1.3-.7-2.2-.7-1.1 0-2.1.4-2.9 1.2-.8.8-1.2 1.9-1.3 3.3h8.1z"/><path class="st1" d="M148 82.6h-2.3V67.8h2v3.4c.7-1.6 1.4-2.7 2.1-3.1.7-.5 1.4-.7 2.2-.7.2 0 .5 0 .9.1v2.2h-.5c-1.3 0-2.3.5-3.2 1.4-.8.9-1.3 2.2-1.3 3.7v7.8z"/><path class="st2" d="M148 82.6h-2.3V67.8h2v3.4c.7-1.6 1.4-2.7 2.1-3.1.7-.5 1.4-.7 2.2-.7.2 0 .5 0 .9.1v2.2h-.5c-1.3 0-2.3.5-3.2 1.4-.8.9-1.3 2.2-1.3 3.7v7.8z"/><path class="st1" d="M167.3 67.8l-5.1 14.8h-2.4l-5.3-14.8h2.6l4.1 12 4-12z"/><path class="st2" d="M167.3 67.8l-5.1 14.8h-2.4l-5.3-14.8h2.6l4.1 12 4-12z"/><path class="st1" d="M171.6 65.2h-2.5v-2.6h2.5v2.6zm-.1 17.4h-2.3V67.8h2.3v14.8z"/><path class="st2" d="M171.6 65.2h-2.5v-2.6h2.5v2.6zm-.1 17.4h-2.3V67.8h2.3v14.8z"/><path class="st1" d="M183.6 77.4l2.1.4c-.3 1.6-.9 2.9-1.9 3.8-1 .9-2.3 1.4-3.8 1.4-2 0-3.6-.8-4.7-2.3-1.1-1.5-1.6-3.3-1.6-5.5s.6-4.1 1.7-5.6 2.7-2.2 4.6-2.2c1.6 0 2.9.5 3.9 1.4 1 1 1.6 2.2 1.8 3.7l-2.1.4c-.4-2.4-1.6-3.7-3.5-3.7-1.3 0-2.2.5-2.9 1.6-.7 1.1-1 2.5-1 4.2 0 1.9.3 3.4 1 4.4.7 1 1.6 1.6 2.9 1.6 1.7.1 3-1.1 3.5-3.6"/><path class="st2" d="M183.6 77.4l2.1.4c-.3 1.6-.9 2.9-1.9 3.8-1 .9-2.3 1.4-3.8 1.4-2 0-3.6-.8-4.7-2.3-1.1-1.5-1.6-3.3-1.6-5.5s.6-4.1 1.7-5.6 2.7-2.2 4.6-2.2c1.6 0 2.9.5 3.9 1.4 1 1 1.6 2.2 1.8 3.7l-2.1.4c-.4-2.4-1.6-3.7-3.5-3.7-1.3 0-2.2.5-2.9 1.6-.7 1.1-1 2.5-1 4.2 0 1.9.3 3.4 1 4.4.7 1 1.6 1.6 2.9 1.6 1.7.1 3-1.1 3.5-3.6z"/><path class="st1" d="M198.6 78.2l2.1.4c-.4 1.3-1.1 2.3-2.3 3.1-1.1.8-2.5 1.2-4 1.2-2 0-3.6-.7-4.9-2.1-1.2-1.4-1.9-3.3-1.9-5.6 0-2.4.6-4.3 1.9-5.7 1.3-1.4 2.9-2.2 4.9-2.2 1.9 0 3.5.7 4.7 2 1.2 1.3 1.8 3.3 1.8 6h-10.7c0 2.2.5 3.7 1.4 4.5.9.8 1.9 1.2 3 1.2 1.9.1 3.2-.9 4-2.8m-.1-4.5c0-.8-.2-1.6-.4-2.2-.3-.6-.7-1.2-1.3-1.6-.6-.5-1.3-.7-2.2-.7-1.1 0-2.1.4-2.9 1.2-.8.8-1.2 1.9-1.3 3.3h8.1z"/><path class="st2" d="M198.6 78.2l2.1.4c-.4 1.3-1.1 2.3-2.3 3.1-1.1.8-2.5 1.2-4 1.2-2 0-3.6-.7-4.9-2.1-1.2-1.4-1.9-3.3-1.9-5.6 0-2.4.6-4.3 1.9-5.7 1.3-1.4 2.9-2.2 4.9-2.2 1.9 0 3.5.7 4.7 2 1.2 1.3 1.8 3.3 1.8 6h-10.7c0 2.2.5 3.7 1.4 4.5.9.8 1.9 1.2 3 1.2 1.9.1 3.2-.9 4-2.8zm-.1-4.5c0-.8-.2-1.6-.4-2.2-.3-.6-.7-1.2-1.3-1.6-.6-.5-1.3-.7-2.2-.7-1.1 0-2.1.4-2.9 1.2-.8.8-1.2 1.9-1.3 3.3h8.1z"/><path class="st1" d="M202.3 78.8l2.2-.5c.5 1.9 2 2.8 4.6 2.8 1 0 1.8-.2 2.4-.6.7-.4 1-1 1-1.8 0-1.2-.8-1.9-2.5-2.2l-3.1-.6c-1.2-.2-2.2-.7-2.9-1.4-.7-.7-1.1-1.6-1.1-2.7 0-1.2.5-2.3 1.5-3.1 1-.8 2.3-1.3 4-1.3 3.2 0 5.2 1.3 5.9 3.8l-2.1.5c-.6-1.5-1.8-2.3-3.7-2.3-.9 0-1.7.2-2.3.6-.6.4-.9.9-.9 1.6 0 1.1.8 1.8 2.3 2l2.9.5c3 .5 4.5 2 4.5 4.4 0 1.4-.6 2.5-1.7 3.3-1.1.8-2.6 1.3-4.5 1.3-3.5-.1-5.7-1.5-6.5-4.3"/><path class="st2" d="M202.3 78.8l2.2-.5c.5 1.9 2 2.8 4.6 2.8 1 0 1.8-.2 2.4-.6.7-.4 1-1 1-1.8 0-1.2-.8-1.9-2.5-2.2l-3.1-.6c-1.2-.2-2.2-.7-2.9-1.4-.7-.7-1.1-1.6-1.1-2.7 0-1.2.5-2.3 1.5-3.1 1-.8 2.3-1.3 4-1.3 3.2 0 5.2 1.3 5.9 3.8l-2.1.5c-.6-1.5-1.8-2.3-3.7-2.3-.9 0-1.7.2-2.3.6-.6.4-.9.9-.9 1.6 0 1.1.8 1.8 2.3 2l2.9.5c3 .5 4.5 2 4.5 4.4 0 1.4-.6 2.5-1.7 3.3-1.1.8-2.6 1.3-4.5 1.3-3.5-.1-5.7-1.5-6.5-4.3z"/><path class="st3" d="M150.4 36.3v-3.5c0-.5.4-.9.9-.9h15.9c.5 0 .9.4.9.9v3c0 .5-.4 1.2-1.2 2.2l-8.2 11.8c3.1-.1 6.3.4 9.1 2 .6.4.8.9.8 1.4V57c0 .5-.6 1.1-1.2.8-4.9-2.6-11.4-2.8-16.8 0-.6.3-1.1-.3-1.1-.8v-3.6c0-.6 0-1.6.6-2.4l9.5-13.7h-8.3c-.5-.1-.9-.5-.9-1M93.5 58.4h-4.8c-.5 0-.8-.4-.9-.8V32.8c0-.5.4-.9.9-.9h4.5c.5 0 .9.4.9.8V36h.1c1.2-3.1 3.4-4.6 6.4-4.6 3 0 4.9 1.5 6.3 4.6 1.2-3.1 3.8-4.6 6.7-4.6 2 0 4.2.8 5.6 2.7 1.5 2.1 1.2 5.1 1.2 7.8v15.7c0 .5-.4.9-.9.9h-4.8c-.5 0-.9-.4-.9-.9V44.4c0-1 .1-3.7-.1-4.7-.4-1.7-1.4-2.1-2.8-2.1-1.2 0-2.4.8-2.9 2-.5 1.3-.5 3.3-.5 4.8v13.2c0 .5-.4.9-.9.9h-4.8c-.5 0-.9-.4-.9-.9V44.4c0-2.8.5-6.8-3-6.8s-3.3 4-3.3 6.8v13.2c-.1.4-.6.8-1.1.8m86.3-27c7.1 0 11 6.2 11 14 0 7.6-4.3 13.6-11 13.6-7 0-10.8-6.2-10.8-13.8 0-7.8 3.9-13.8 10.8-13.8m.1 5.7c-3.5 0-3.8 4.9-3.8 7.9s0 8.9 3.7 8.9 3.9-4.6 3.9-7.8c0-2.1-.1-4.6-.7-6.6-.5-1.8-1.6-2.4-3.1-2.4m21.2 21.3h-4.8c-.5 0-.9-.4-.9-.9V32.7c0-.5.4-.8.9-.8h4.5c.4 0 .8.3.9.7v3.8h.1c1.4-3.4 3.2-5 6.6-5 2.2 0 4.3.8 5.6 2.9 1.3 2 1.3 5.3 1.3 7.7v15.6c-.1.4-.4.8-.9.8h-4.8c-.4 0-.8-.4-.9-.8V44.2c0-2.7.3-6.7-3-6.7-1.2 0-2.3.8-2.8 2-.7 1.5-.8 3-.8 4.7v13.4c-.1.4-.5.8-1 .8m-62.8-11.8c0 1.9 0 3.5-.9 5.1-.8 1.4-2 2.2-3.3 2.2-1.9 0-2.9-1.4-2.9-3.5 0-4.1 3.7-4.9 7.2-4.9v1.1zm4.9 11.8c-.3.3-.8.3-1.1.1-1.6-1.3-1.9-2-2.8-3.2-2.7 2.7-4.5 3.5-8 3.5-4.1 0-7.2-2.5-7.2-7.5 0-3.9 2.1-6.6 5.2-7.9 2.6-1.2 6.3-1.4 9.1-1.7V41c0-1.2.1-2.5-.6-3.5-.6-.9-1.7-1.3-2.7-1.3-1.8 0-3.5.9-3.9 2.9-.1.4-.4.9-.8.9l-4.7-.5c-.4-.1-.8-.4-.7-1 1.1-5.7 6.2-7.4 10.8-7.4 2.4 0 5.4.6 7.3 2.4 2.4 2.2 2.1 5.1 2.1 8.3v7.5c0 2.3.9 3.3 1.8 4.5.3.4.4 1 0 1.3-1.1.9-2.8 2.4-3.8 3.3zM75.4 46.6c0 1.9 0 3.5-.9 5.1-.8 1.4-2 2.2-3.3 2.2-1.9 0-2.9-1.4-2.9-3.5 0-4.1 3.7-4.9 7.2-4.9v1.1zm4.9 11.8c-.3.3-.8.3-1.1.1-1.6-1.3-1.9-2-2.8-3.2-2.7 2.7-4.5 3.5-8 3.5-4.1 0-7.2-2.5-7.2-7.5 0-3.9 2.1-6.6 5.2-7.9 2.6-1.2 6.3-1.4 9.1-1.7V41c0-1.2.1-2.5-.6-3.5-.6-.9-1.7-1.3-2.7-1.3-1.8 0-3.5.9-3.9 2.9-.1.4-.4.9-.8.9l-4.7-.5c-.4-.1-.8-.4-.7-1 1.1-5.7 6.2-7.4 10.8-7.4 2.4 0 5.4.6 7.3 2.4 2.4 2.2 2.1 5.1 2.1 8.3v7.5c0 2.3.9 3.3 1.8 4.5.3.4.4 1 0 1.3-1.1.9-2.8 2.4-3.8 3.3z"/><path class="st1" d="M80.3 67.8l-4.2 14.8h-1.9l-3.3-11-3 11H66l-4.4-14.8h2.3l3.2 11 3.1-11h1.7l3.3 11.1 3.3-11.1z"/><path class="st2" d="M80.3 67.8l-4.2 14.8h-1.9l-3.3-11-3 11H66l-4.4-14.8h2.3l3.2 11 3.1-11h1.7l3.3 11.1 3.3-11.1z"/></svg>