<svg xmlns="http://www.w3.org/2000/svg" width="150.5" height="50" viewBox="99.5 0 150.5 50"><title>Artboard</title><path fill="#00AEEF" d="M117.66 24.568h17.727V8.886l-17.728 2.5.001 13.182zm-.455 0V11.5l-13.523 1.932v11.136h13.523zm0 .568h-13.523v11.25l13.523 1.933V25.136zm.455 0v13.183l17.727 2.5V25.136H117.66zm55.908-8.522c0 .454-.113.681-.454 1.021-.228.229-.569.455-1.023.455-.341 0-.682-.114-1.022-.341-.228-.227-.454-.568-.454-1.023 0-.34.112-.682.454-1.022.227-.228.568-.455 1.022-.455s.683.114 1.023.455c.34.114.454.455.454.91zm-4.204-1.024l-5.341 18.865h-2.614l-4.204-14.887L153 34.455h-2.5l-5.455-18.864h2.387l4.318 15.795 4.545-15.795h2.16l4.318 15.795 4.203-15.795 2.388-.001zm3.863 18.865h-2.158v-13.41h2.16l-.002 13.41zm14.318 0H185.5v-7.729c0-2.839-1.023-4.317-3.068-4.317-1.022 0-1.932.455-2.613 1.25-.682.796-1.023 1.818-1.023 3.067v7.729h-2.386v-13.41h2.159v2.273c1.022-1.704 2.5-2.613 4.432-2.613 1.477 0 2.614.454 3.41 1.477.795.909 1.135 2.386 1.135 4.089v8.184zm14.887 0h-2.16v-2.273c-1.021 1.704-2.5 2.613-4.658 2.613-1.704 0-3.068-.568-4.09-1.818-1.023-1.25-1.479-2.84-1.479-4.886 0-2.272.568-3.977 1.705-5.341s2.613-2.045 4.432-2.045 3.183.681 3.978 2.159v-8.296h2.159v19.887h.113zm-2.161-6.137v-1.933c0-1.136-.34-2.045-1.135-2.727a3.763 3.763 0 0 0-2.728-1.136c-1.25 0-2.272.454-3.068 1.477-.796.91-1.136 2.273-1.136 3.977 0 1.592.34 2.729 1.021 3.638.683.909 1.705 1.362 2.842 1.362s2.16-.453 2.955-1.25c.795-.908 1.25-2.045 1.25-3.408h-.001zm18.069-.682c0 2.16-.566 3.864-1.816 5.114s-2.842 1.932-4.887 1.932c-1.932 0-3.523-.682-4.773-1.932-1.137-1.25-1.818-2.955-1.818-5 0-2.273.568-3.977 1.818-5.227s2.841-1.932 5-1.932c2.046 0 3.523.568 4.66 1.818 1.249 1.364 1.817 3.068 1.816 5.227zm-2.158.114c0-1.705-.341-2.955-1.137-3.864-.795-.909-1.818-1.363-3.182-1.363s-2.5.454-3.295 1.363c-.795.91-1.25 2.273-1.25 3.864 0 1.59.455 2.84 1.25 3.75s1.932 1.364 3.295 1.364 2.5-.455 3.182-1.364c.682-.795 1.137-2.045 1.137-3.75zm21.704-6.705l-3.977 13.523h-2.273l-2.954-10.454-3.296 10.454h-2.159l-4.09-13.523h2.272l2.954 10.91h.113l3.297-10.91h1.932l2.954 10.91h.114l2.953-10.91h2.16zm9.091 9.773c0 1.137-.453 2.16-1.363 2.841-.909.682-2.045 1.136-3.522 1.136-1.25 0-2.386-.227-3.296-.795v-2.273c1.023.91 2.273 1.25 3.523 1.25 1.705 0 2.5-.682 2.5-1.932 0-.454-.113-.908-.455-1.25-.34-.34-1.137-.795-2.272-1.25-1.136-.454-2.046-1.021-2.5-1.59-.455-.568-.682-1.364-.682-2.273 0-1.137.454-2.046 1.364-2.841.908-.796 2.045-1.136 3.408-1.136 1.023 0 2.045.227 2.84.681v2.16c-.908-.682-1.931-.91-3.066-.91-.682 0-1.25.228-1.705.569-.44.312-.695.823-.682 1.363 0 .568.113 1.023.455 1.364.34.34 1.021.683 2.045 1.137 1.25.568 2.16 1.137 2.727 1.705.34.453.681 1.135.681 2.044z"/></svg>